# xmcd CD database file generated by Grip 3.0.1
# 
# Track frame offsets:
#       151
#       21672
#       38927
#       55828
#       73582
#       91937
#       114192
#       132218
#       153666
#       178021
#       194033
#       212724
# 
# Disc length: 4469 seconds
# 
# Revision: 2
# Processed by: cddbd v1.4PL0 Copyright (c) Steve Scherf et al.
# Submitted via: Grip 3.0.1
# 
DISCID=ae11730c
DTITLE=GB Leighton - It's All Good
DYEAR=2000
DGENRE=Rock
TTITLE0=Most Important Night Of My Life
TTITLE1=Fly My Plane
TTITLE2=It's All Good
TTITLE3=Good Night Blue Eyes
TTITLE4=Trouble With Sophia
TTITLE5=One More Night
TTITLE6=Never Walk Alone
TTITLE7=Running Back
TTITLE8=Red Dress
TTITLE9=Bad Bad Bad Alison
TTITLE10=Love Is Easily (The Hardest Thing To Hold)
TTITLE11=County Road
EXTD=ID3G:   2
EXTT0=
EXTT1=
EXTT2=
EXTT3=
EXTT4=
EXTT5=
EXTT6=
EXTT7=
EXTT8=
EXTT9=
EXTT10=
EXTT11=
PLAYORDER=
